PathFileType	4	(X/Y/Z)	Falisse_et_al_2022_v1.trc
DataRate	CameraRate	NumFrames	NumMarkers	Units	OrigDataRate	OrigDataStartFrame	OrigNumFrames
0	0	4	47	m	0	0	200
Frame#	Time	RASI			LASI			CLAV			RSHO			LSHO			RKNE			RKNE_med			RTHI1			RTHI2			RTHI3			RANK			RANK_med			RTIB1			RTIB2			RTIB3			LKNE			LKNE_med			LTHI1			LTHI2			LTHI3			LANK			LANK_med			LTIB1			LTIB2			LTIB3			RPSI			LPSI			RELB			LELB			RW1			RW2			LW1			LW2			hum_l2			hum_r2			rad_l2			rad_r2			LH			RH			Foot_r1			Foot_r4			Foot_r6			Foot_r7			foot_l1			foot_l4			foot_l6			foot_l7		
		X1	Y1	Z1	X2	Y2	Z2	X3	Y3	Z3	X4	Y4	Z4	X5	Y5	Z5	X6	Y6	Z6	X7	Y7	Z7	X8	Y8	Z8	X9	Y9	Z9	X10	Y10	Z10	X11	Y11	Z11	X12	Y12	Z12	X13	Y13	Z13	X14	Y14	Z14	X15	Y15	Z15	X16	Y16	Z16	X17	Y17	Z17	X18	Y18	Z18	X19	Y19	Z19	X20	Y20	Z20	X21	Y21	Z21	X22	Y22	Z22	X23	Y23	Z23	X24	Y24	Z24	X25	Y25	Z25	X26	Y26	Z26	X27	Y27	Z27	X28	Y28	Z28	X29	Y29	Z29	X30	Y30	Z30	X31	Y31	Z31	X32	Y32	Z32	X33	Y33	Z33	X34	Y34	Z34	X35	Y35	Z35	X36	Y36	Z36	X37	Y37	Z37	X38	Y38	Z38	X39	Y39	Z39	X40	Y40	Z40	X41	Y41	Z41	X42	Y42	Z42	X43	Y43	Z43	X44	Y44	Z44	X45	Y45	Z45	X46	Y46	Z46	X47	Y47	Z47
0	0.0	0.02297596434424405	0.9136272892475101	0.11666126829644764	-0.00658883263439639	0.896868645253458	-0.1374349971720784	0.026126451391037225	1.3323832394998831	-0.03358107574857998	-0.04895731148283697	1.3765671662814016	0.15922534254684584	-0.07322925183846657	1.3643341680116483	-0.18407253904995707	0.14210328415561718	0.48180731087144557	0.11241396488918476	0.09909529874511462	0.4419677179131112	0.009905639269230354	0.051178075732146486	0.7739281959029798	0.18493728022985295	0.001725734628063122	0.739193764029207	0.21109731232726997	0.05290568092005504	0.7171916522468426	0.1924761437227719	0.21072014723332666	0.09007779997477028	0.09101874117810035	0.2089457072165776	0.11351079178656748	0.009103642708498838	0.18331945237195446	0.3049878756652072	0.12268355292217913	0.11793510490345273	0.2763630382466437	0.13939204554405737	0.16847599980957473	0.25160502932600887	0.12749249667915685	-0.21745203459731693	0.44423785471524335	-0.10152670772332395	-0.23906503248418565	0.4528528309254193	-0.009556883329248575	-0.05854232970278327	0.6156758687651422	-0.10054696231364227	-0.09411285909318887	0.6260355616888843	-0.15962325729797971	-0.09483040209593964	0.573887564761346	-0.1263151257405095	-0.43952766789135483	0.11831148935162966	-0.08985222770168033	-0.44349186007960106	0.13883608395637909	-0.006366032637117797	-0.3134927772617908	0.27581105163156383	-0.09820901915932567	-0.36636744937318694	0.3008285478917466	-0.13068764984627557	-0.35885412595984106	0.24485222016992597	-0.11233468473121101	-0.15579627081279587	0.9557062960379739	0.031888884484688296	-0.15995340549610462	0.9584113109397393	-0.016342304709582922	-0.11606911002292708	1.074028743915826	0.21136257754792223	-0.133908358363425	1.034361725806546	-0.21611024870017698	-0.05478869175933261	0.8471774630664054	0.2800516355920003	-0.12864412184499116	0.8653991844031428	0.3010608912429966	0.14287849038022438	0.9936432156894999	-0.145335911733241	0.10861982771263523	0.9202555403218848	-0.15195263471848336	-0.09325968174208063	1.2013350014321773	-0.22956080522704328	-0.07279594757263652	1.221041198859641	0.19948063445863762	0.019452822762045754	0.9897109119512274	-0.20180247177497956	-0.09077399993468843	0.9410628508115593	0.27557152405966717	0.18940745348646054	0.9366933676851589	-0.1482513068700948	-0.08138251305873964	0.8117964588963092	0.3273782139507166	0.16888276809017536	0.06513078064295748	0.051570929389427984	0.26353781041408153	0.07712527926242621	0.09646436851089585	0.35486773051296583	0.13438301541978417	0.07160192122197007	0.3862848791868616	0.14333606262285617	0.03243046082353753	-0.5018752809620277	0.13301427301662422	-0.055665654496264386	-0.421597714961299	0.061846809981966296	-0.08368030323525301	-0.33498098057442594	0.024262023180988815	-0.04016051946975685	-0.31400963993939973	0.03289278318412541	-0.00045957351617734177
1	0.01102664	0.0413162956810038	0.9122296110132571	0.11679169001795778	0.010251401125688503	0.8948718220669959	-0.1370852900001671	0.042862396045817486	1.3310294029494174	-0.032766119556868825	-0.03140212223967839	1.3746298131935162	0.16048990575518965	-0.05727767589280179	1.363084118322678	-0.18271464185052216	0.15650429664640747	0.478062457452466	0.11095598158876308	0.11177891647210755	0.4386235241322554	0.009029303508926292	0.06974415003172965	0.7712333347909283	0.18433956222132852	0.020239552272463518	0.7370716147230574	0.21114690748907078	0.07093519642772564	0.7144870010451982	0.1919085438830654	0.21657821628579127	0.0846378799817406	0.08955377695689079	0.21425392789725928	0.10794555330918981	0.007616684334213794	0.19407474283146378	0.3001341976301667	0.12109311394108091	0.12832431023858168	0.27291461949199103	0.13868979307792192	0.17818216184533858	0.247082653546436	0.12620602380096296	-0.1991767837700137	0.44205428214802517	-0.10091881488461947	-0.21953887671977168	0.4500854566831629	-0.008611320616124102	-0.04088349774309133	0.6140641794155752	-0.10119758524641259	-0.07730932555565904	0.6246177231473564	-0.15971575516426748	-0.07737674133002174	0.5722854899639456	-0.12669011505668504	-0.4347394872105751	0.12422831261606126	-0.08922932108017612	-0.43703803994369017	0.1442547118373083	-0.005559860944968138	-0.3027311230299795	0.2767451316261452	-0.09778229969888279	-0.3549179028121461	0.3040553273858857	-0.12951809565309633	-0.3494120867340954	0.24768994754147047	-0.1116502315737379	-0.13794756118560547	0.9541318892344862	0.03297533938263977	-0.1423887323076858	0.956722960389862	-0.015236783935253025	-0.10199061815263565	1.073267672201273	0.2124577375883607	-0.12004557750758454	1.0337540739721511	-0.21526972386547732	-0.04512789727820344	0.8461802858109877	0.2831409727697752	-0.11882994711494074	0.8658179847287588	0.30339962859138103	0.15792609290733006	1.0010306831316733	-0.14209703480979308	0.12601462252871218	0.9264949385256012	-0.14750709220232547	-0.07815241751967875	1.2004361403277453	-0.22851204453668933	-0.057062544799358184	1.219782190952428	0.20056769601932564	0.035060114433791416	0.9921661582680695	-0.19922148119934585	-0.07945054532862855	0.9406358126522929	0.2777013849348878	0.20622469995354825	0.945518451381943	-0.14363515308295788	-0.07271967487806776	0.8116002680350465	0.3304882851119565	0.17338093758225825	0.0611719424740625	0.05059610100976071	0.26879320876527607	0.0702356317513449	0.09456443000926876	0.36177198119504905	0.1242202809736285	0.06851928715828215	0.39311795587497833	0.13186027706052592	0.02901245409387579	-0.4957959071018893	0.14144420674604524	-0.05477785459433579	-0.41927614938009344	0.06637241889819029	-0.08311633178143892	-0.3342641148118557	0.024769736813176152	-0.04009055723154183	-0.312856837086737	0.03343460752563655	-0.0006244724310035879
2	0.02205328	0.05972014082412313	0.9108525185384009	0.11697477972699641	0.0272641836324427	0.8929445503490969	-0.13668987490991175	0.05963777714156219	1.329732705737223	-0.03188138469419907	-0.013856399487243515	1.3727266030283425	0.1618045377844881	-0.041258268355048346	1.3618721333850066	-0.18130408483444427	0.17034638679325276	0.47406638637912785	0.10977146249040272	0.12389336850050192	0.4350816657957229	0.0084445388714081	0.08820937474608512	0.7684005116807723	0.18381584243472843	0.03860327551303155	0.7349015816922757	0.21126431572765514	0.08877154381128108	0.7116523793525455	0.19144394257140201	0.22046756040592586	0.0788750597532955	0.08880021325435025	0.21769910174906829	0.10201504261706645	0.006829401805158376	0.20360687451246476	0.29493872796107623	0.11997724914205786	0.13743586722443335	0.26937650994634194	0.13846072125827052	0.18649221398243984	0.24230403386850416	0.12544165030112514	-0.17975657106407036	0.43961382671681204	-0.10051105144819256	-0.19887972646519447	0.44697320378695365	-0.007883125915550543	-0.02253356666367793	0.6125967260543458	-0.10195683711823016	-0.05983444553993093	0.6232708871396595	-0.15989905961485407	-0.05912304517498653	0.5707448945519016	-0.12719012977059505	-0.42917916856802824	0.13080767824299222	-0.08860615410959305	-0.42979882637732436	0.15027179687059744	-0.00477487903875367	-0.29111362253454753	0.2778467547216825	-0.09744678330746688	-0.3424563408289638	0.3075145214630647	-0.12843414227905953	-0.33908749361487023	0.25083601260840693	-0.11103218477682553	-0.11999933764705581	0.9525789386131625	0.03405115909670771	-0.12470456306387243	0.955065464081065	-0.014141418447577454	-0.08790231068862822	1.0726028222269406	0.21364701049825618	-0.10609735862212841	1.0332015847540177	-0.2143708064725774	-0.03499757996139004	0.8452664036134754	0.285926170877234	-0.10853630775607126	0.8661430006805683	0.30552891848715447	0.17270092540122245	1.0076646237684146	-0.1391620220180548	0.14290819631159118	0.9321843040561244	-0.14344016603384346	-0.0629683640912805	1.199584449023694	-0.22740688959898867	-0.04130540679790344	1.2185926832517409	0.20172651997179256	0.05047084408196954	0.9943831952991038	-0.1967922373667223	-0.06782597737114433	0.9402041336809067	0.27971299382952947	0.22253353826924532	0.9535042276922256	-0.13946420719160932	-0.06346343792043775	0.8113787525648111	0.3332566456645435	0.17596343938166673	0.05690882599155995	0.05032282763895202	0.27199907591679606	0.06299675573473972	0.09343848068237093	0.36654857981438993	0.11357812814359533	0.06624178937103	0.3978127408160347	0.1198491857386498	0.02642571063112816	-0.48876825772138544	0.15062755573302425	-0.053906084399796245	-0.41641860324714297	0.07162668402698522	-0.08251562317453634	-0.3333163998547503	0.025881539660600236	-0.03996621645781935	-0.31134874965770504	0.03426763621546261	-0.000737988866323265
3	0.03307992	0.07793834095517878	0.9096539323125119	0.1172345189629503	0.04422777839410881	0.8912719851259789	-0.13623252718586748	0.07635054551029645	1.3286251371333073	-0.030905600278461773	0.0035676750941721347	1.371023202656759	0.16317985405262453	-0.02524159668680937	1.3608625802976348	-0.1798347177324124	0.18408008714631935	0.47036320258567316	0.10862129831321664	0.135982996644824	0.43187856394382834	0.007871909871102742	0.10644891910640641	0.7657482218914939	0.18333895609850198	0.05675217076103008	0.7328869447393028	0.2113876948478552	0.10639714950789635	0.7090033575243003	0.1910117754207829	0.22422164704790645	0.07364427675935203	0.08815427825802832	0.22105023135651058	0.09664351352033224	0.006158459274167631	0.21299220535791483	0.2901304802110999	0.11893450517926484	0.14644146342723235	0.2662334097550404	0.1382631551297955	0.19466755472198244	0.2379419426068351	0.12474363842813403	-0.15924292044770716	0.43706308788885245	-0.10037369725737535	-0.17716907679137006	0.4436576347069641	-0.00744924965157559	-0.0036236896881787876	0.6114789158780444	-0.10282743660092572	-0.04180481209701707	0.622181107498919	-0.16018821949111803	-0.04017360485307461	0.569456548870163	-0.12783361920467848	-0.42269880741218635	0.13814951953162297	-0.08808809886153743	-0.42166072041522135	0.15698715853498196	-0.0041179595147511905	-0.27859131157898104	0.2792494360358789	-0.09728510625624257	-0.32892780686559053	0.31130663771172257	-0.1275347440109432	-0.32780374221141095	0.2544060349284494	-0.11057336128422088	-0.10219132570338313	0.9512193255051118	0.03512402504856686	-0.10713518896116	0.9536158434819586	-0.013049218595208849	-0.07375196950438934	1.0721134247736044	0.21487797377083911	-0.09205736335173009	1.0328379498464106	-0.21340590262846995	-0.024345202114557513	0.8445205934559636	0.28837557242091505	-0.0977133853215095	0.8664736198916335	0.3074338731805876	0.18727093552462867	1.0135081756389595	-0.1365086526702756	0.1593165058439559	0.9372777180050539	-0.13977286419087193	-0.047748364797238894	1.1989264398185095	-0.226236853528081	-0.02555628166475754	1.2175820495820835	0.20294214792475124	0.06569510542399859	0.9964196590087232	-0.19451840165569395	-0.05584354526027569	0.9398671309596164	0.28156587338098094	0.23838684667961935	0.96056196472552	-0.13573956166934417	-0.0535595240098128	0.8112214437995919	0.3356676630375903	0.17848916049609181	0.053239390498803746	0.050144497869391756	0.2750236263820286	0.056313138275988925	0.09245897389527438	0.3710354060482702	0.10341138205620978	0.06415283430562382	0.40218646383141265	0.10829996388308336	0.024049401314577494	-0.48065134785083385	0.16060978025711495	-0.05318082530619932	-0.41285114867963757	0.0777309344211786	-0.08196182332588003	-0.331969101106271	0.027806804937692553	-0.03983437230671239	-0.30932936881576145	0.03548088051979448	-0.0008369996218359349
